<svg xmlns="http://www.w3.org/2000/svg" xmlns:xlink="http://www.w3.org/1999/xlink" width="500" zoomAndPan="magnify" viewBox="0 0 375 143.999998" height="192" preserveAspectRatio="xMidYMid meet" version="1.0"><defs><g/></defs><g fill="#ffde59" fill-opacity="1"><g transform="translate(3.169666, 55.261296)"><g><path d="M 28.515625 -35.859375 L 30.96875 -31.953125 L 9.65625 -18.890625 L 30.96875 -5.703125 L 28.25 -1.984375 L 5.3125 -16.328125 L 5.3125 -21.515625 Z M 28.515625 -35.859375 "/></g></g></g><g fill="#ffffff" fill-opacity="1"><g transform="translate(39.387739, 55.261296)"><g><path d="M 6.375 0 L 6.375 -3.890625 L 11.3125 -3.890625 L 11.3125 -27.890625 L 6.375 -27.890625 L 6.375 -31.78125 L 15.1875 -31.78125 L 16.109375 -24.265625 C 17.335938 -26.878906 18.828125 -28.898438 20.578125 -30.328125 C 22.328125 -31.753906 24.644531 -32.46875 27.53125 -32.46875 C 28.414062 -32.46875 29.203125 -32.398438 29.890625 -32.265625 C 30.585938 -32.140625 31.296875 -31.976562 32.015625 -31.78125 L 30.546875 -27.25 C 29.878906 -27.4375 29.273438 -27.570312 28.734375 -27.65625 C 28.191406 -27.75 27.566406 -27.796875 26.859375 -27.796875 C 24.421875 -27.796875 22.328125 -26.929688 20.578125 -25.203125 C 18.828125 -23.472656 17.429688 -20.859375 16.390625 -17.359375 L 16.390625 -3.890625 L 22.84375 -3.890625 L 22.84375 0 Z M 27.125 -21.03125 L 27.125 -27.953125 L 27.640625 -31.78125 L 32.015625 -31.78125 L 31.296875 -21.03125 Z M 27.125 -21.03125 "/></g></g></g><g fill="#ffffff" fill-opacity="1"><g transform="translate(75.599998, 55.261296)"><g><path d="M 28.828125 -6.9375 C 28.828125 -5.675781 29.035156 -4.753906 29.453125 -4.171875 C 29.878906 -3.585938 30.535156 -3.148438 31.421875 -2.859375 L 30.1875 0.6875 C 28.8125 0.507812 27.609375 0.078125 26.578125 -0.609375 C 25.554688 -1.304688 24.816406 -2.359375 24.359375 -3.765625 C 23.210938 -2.296875 21.78125 -1.1875 20.0625 -0.4375 C 18.351562 0.3125 16.460938 0.6875 14.390625 0.6875 C 11.210938 0.6875 8.707031 -0.203125 6.875 -1.984375 C 5.050781 -3.773438 4.140625 -6.148438 4.140625 -9.109375 C 4.140625 -12.390625 5.414062 -14.90625 7.96875 -16.65625 C 10.519531 -18.40625 14.210938 -19.28125 19.046875 -19.28125 L 23.71875 -19.28125 L 23.71875 -21.9375 C 23.71875 -24.226562 23.046875 -25.851562 21.703125 -26.8125 C 20.367188 -27.769531 18.515625 -28.25 16.140625 -28.25 C 15.097656 -28.25 13.875 -28.125 12.46875 -27.875 C 11.0625 -27.625 9.53125 -27.207031 7.875 -26.625 L 6.546875 -30.453125 C 8.492188 -31.171875 10.320312 -31.679688 12.03125 -31.984375 C 13.75 -32.285156 15.382812 -32.4375 16.9375 -32.4375 C 20.894531 -32.4375 23.863281 -31.515625 25.84375 -29.671875 C 27.832031 -27.835938 28.828125 -25.34375 28.828125 -22.1875 Z M 15.6875 -3.171875 C 17.257812 -3.171875 18.757812 -3.566406 20.1875 -4.359375 C 21.613281 -5.148438 22.789062 -6.253906 23.71875 -7.671875 L 23.71875 -15.84375 L 19.140625 -15.84375 C 15.628906 -15.84375 13.15625 -15.238281 11.71875 -14.03125 C 10.28125 -12.820312 9.5625 -11.203125 9.5625 -9.171875 C 9.5625 -7.203125 10.066406 -5.707031 11.078125 -4.6875 C 12.097656 -3.675781 13.632812 -3.171875 15.6875 -3.171875 Z M 15.6875 -3.171875 "/></g></g></g><g fill="#ffffff" fill-opacity="1"><g transform="translate(111.812257, 55.261296)"><g><path d="M 20.4375 -3.6875 C 22.019531 -3.6875 23.5 -3.945312 24.875 -4.46875 C 26.257812 -4.988281 27.535156 -5.648438 28.703125 -6.453125 L 31.171875 -3.140625 C 29.785156 -1.953125 28.113281 -1.015625 26.15625 -0.328125 C 24.207031 0.347656 22.300781 0.6875 20.4375 0.6875 C 17.269531 0.6875 14.578125 0.0078125 12.359375 -1.34375 C 10.140625 -2.695312 8.441406 -4.609375 7.265625 -7.078125 C 6.097656 -9.546875 5.515625 -12.4375 5.515625 -15.75 C 5.515625 -18.925781 6.101562 -21.773438 7.28125 -24.296875 C 8.457031 -26.828125 10.15625 -28.816406 12.375 -30.265625 C 14.601562 -31.710938 17.304688 -32.4375 20.484375 -32.4375 C 22.523438 -32.4375 24.429688 -32.128906 26.203125 -31.515625 C 27.984375 -30.910156 29.617188 -29.992188 31.109375 -28.765625 L 28.640625 -25.375 C 27.296875 -26.320312 25.941406 -27.03125 24.578125 -27.5 C 23.222656 -27.976562 21.84375 -28.21875 20.4375 -28.21875 C 17.695312 -28.21875 15.441406 -27.191406 13.671875 -25.140625 C 11.898438 -23.085938 11.015625 -19.957031 11.015625 -15.75 C 11.015625 -12.9375 11.421875 -10.640625 12.234375 -8.859375 C 13.046875 -7.078125 14.160156 -5.769531 15.578125 -4.9375 C 17.003906 -4.101562 18.625 -3.6875 20.4375 -3.6875 Z M 20.4375 -3.6875 "/></g></g></g><g fill="#ffffff" fill-opacity="1"><g transform="translate(148.024515, 55.261296)"><g><path d="M 11.140625 -45.0625 L 11.140625 -27.4375 C 12.378906 -29.101562 13.910156 -30.351562 15.734375 -31.1875 C 17.554688 -32.019531 19.40625 -32.4375 21.28125 -32.4375 C 24.375 -32.4375 26.632812 -31.613281 28.0625 -29.96875 C 29.488281 -28.320312 30.203125 -26.03125 30.203125 -23.09375 L 30.203125 0 L 25.140625 0 L 25.140625 -22.96875 C 25.140625 -24.875 24.695312 -26.265625 23.8125 -27.140625 C 22.925781 -28.015625 21.535156 -28.453125 19.640625 -28.453125 C 18.441406 -28.453125 17.296875 -28.179688 16.203125 -27.640625 C 15.117188 -27.097656 14.144531 -26.425781 13.28125 -25.625 C 12.414062 -24.820312 11.703125 -23.992188 11.140625 -23.140625 L 11.140625 0 L 6.0625 0 L 6.0625 -44.515625 Z M 11.140625 -45.0625 "/></g></g></g><g fill="#ffffff" fill-opacity="1"><g transform="translate(184.236774, 55.261296)"><g><path d="M 10.046875 -14.09375 C 10.148438 -11.632812 10.625 -9.625 11.46875 -8.0625 C 12.3125 -6.507812 13.425781 -5.363281 14.8125 -4.625 C 16.207031 -3.894531 17.71875 -3.53125 19.34375 -3.53125 C 20.976562 -3.53125 22.453125 -3.769531 23.765625 -4.25 C 25.085938 -4.738281 26.441406 -5.453125 27.828125 -6.390625 L 30.203125 -3.046875 C 28.722656 -1.878906 27.03125 -0.960938 25.125 -0.296875 C 23.21875 0.359375 21.269531 0.6875 19.28125 0.6875 C 16.207031 0.6875 13.582031 -0.00390625 11.40625 -1.390625 C 9.238281 -2.773438 7.582031 -4.707031 6.4375 -7.1875 C 5.300781 -9.675781 4.734375 -12.5625 4.734375 -15.84375 C 4.734375 -19.0625 5.304688 -21.914062 6.453125 -24.40625 C 7.597656 -26.90625 9.207031 -28.867188 11.28125 -30.296875 C 13.351562 -31.722656 15.800781 -32.4375 18.625 -32.4375 C 21.300781 -32.4375 23.601562 -31.804688 25.53125 -30.546875 C 27.457031 -29.296875 28.9375 -27.507812 29.96875 -25.1875 C 31.007812 -22.863281 31.53125 -20.09375 31.53125 -16.875 C 31.53125 -16.332031 31.519531 -15.820312 31.5 -15.34375 C 31.488281 -14.875 31.460938 -14.457031 31.421875 -14.09375 Z M 18.6875 -28.28125 C 16.332031 -28.28125 14.363281 -27.441406 12.78125 -25.765625 C 11.195312 -24.097656 10.296875 -21.515625 10.078125 -18.015625 L 26.65625 -18.015625 C 26.59375 -21.421875 25.84375 -23.984375 24.40625 -25.703125 C 22.976562 -27.421875 21.070312 -28.28125 18.6875 -28.28125 Z M 18.6875 -28.28125 "/></g></g></g><g fill="#ffffff" fill-opacity="1"><g transform="translate(220.449033, 55.261296)"><g><path d="M 18.4375 -44.578125 L 18.4375 -7.84375 C 18.4375 -6.28125 18.925781 -5.171875 19.90625 -4.515625 C 20.882812 -3.859375 22.144531 -3.53125 23.6875 -3.53125 C 24.65625 -3.53125 25.570312 -3.628906 26.4375 -3.828125 C 27.300781 -4.035156 28.164062 -4.304688 29.03125 -4.640625 L 30.390625 -0.9375 C 29.523438 -0.507812 28.453125 -0.132812 27.171875 0.1875 C 25.898438 0.519531 24.457031 0.6875 22.84375 0.6875 C 20.03125 0.6875 17.75 -0.0859375 16 -1.640625 C 14.25 -3.203125 13.375 -5.363281 13.375 -8.125 L 13.375 -40.5625 L 3.625 -40.5625 L 3.625 -44.578125 Z M 18.4375 -44.578125 "/></g></g></g><g fill="#5ce1e6" fill-opacity="1"><g transform="translate(45.469013, 127.402747)"><g><path d="M 29.609375 0 L 22.421875 0 L 18.3125 -23.328125 L 13.859375 0 L 6.84375 0 L 1.0625 -31.78125 L 6.25 -31.78125 L 10.296875 -3.140625 L 15.359375 -27.734375 L 21.375 -27.734375 L 26.171875 -3.140625 L 30.203125 -31.78125 L 35.15625 -31.78125 Z M 29.609375 0 "/></g></g></g><g fill="#5ce1e6" fill-opacity="1"><g transform="translate(81.681272, 127.402747)"><g><path d="M 10.046875 -14.09375 C 10.148438 -11.632812 10.625 -9.625 11.46875 -8.0625 C 12.3125 -6.507812 13.425781 -5.363281 14.8125 -4.625 C 16.207031 -3.894531 17.71875 -3.53125 19.34375 -3.53125 C 20.976562 -3.53125 22.453125 -3.769531 23.765625 -4.25 C 25.085938 -4.738281 26.441406 -5.453125 27.828125 -6.390625 L 30.203125 -3.046875 C 28.722656 -1.878906 27.03125 -0.960938 25.125 -0.296875 C 23.21875 0.359375 21.269531 0.6875 19.28125 0.6875 C 16.207031 0.6875 13.582031 -0.00390625 11.40625 -1.390625 C 9.238281 -2.773438 7.582031 -4.707031 6.4375 -7.1875 C 5.300781 -9.675781 4.734375 -12.5625 4.734375 -15.84375 C 4.734375 -19.0625 5.304688 -21.914062 6.453125 -24.40625 C 7.597656 -26.90625 9.207031 -28.867188 11.28125 -30.296875 C 13.351562 -31.722656 15.800781 -32.4375 18.625 -32.4375 C 21.300781 -32.4375 23.601562 -31.804688 25.53125 -30.546875 C 27.457031 -29.296875 28.9375 -27.507812 29.96875 -25.1875 C 31.007812 -22.863281 31.53125 -20.09375 31.53125 -16.875 C 31.53125 -16.332031 31.519531 -15.820312 31.5 -15.34375 C 31.488281 -14.875 31.460938 -14.457031 31.421875 -14.09375 Z M 18.6875 -28.28125 C 16.332031 -28.28125 14.363281 -27.441406 12.78125 -25.765625 C 11.195312 -24.097656 10.296875 -21.515625 10.078125 -18.015625 L 26.65625 -18.015625 C 26.59375 -21.421875 25.84375 -23.984375 24.40625 -25.703125 C 22.976562 -27.421875 21.070312 -28.28125 18.6875 -28.28125 Z M 18.6875 -28.28125 "/></g></g></g><g fill="#5ce1e6" fill-opacity="1"><g transform="translate(117.893531, 127.402747)"><g><path d="M 11.140625 -27.640625 C 12.304688 -29.171875 13.644531 -30.351562 15.15625 -31.1875 C 16.675781 -32.019531 18.351562 -32.4375 20.1875 -32.4375 C 23.03125 -32.4375 25.328125 -31.753906 27.078125 -30.390625 C 28.828125 -29.023438 30.101562 -27.097656 30.90625 -24.609375 C 31.707031 -22.128906 32.109375 -19.226562 32.109375 -15.90625 C 32.109375 -12.707031 31.625 -9.851562 30.65625 -7.34375 C 29.695312 -4.84375 28.285156 -2.878906 26.421875 -1.453125 C 24.554688 -0.0234375 22.257812 0.6875 19.53125 0.6875 C 15.84375 0.6875 12.953125 -0.640625 10.859375 -3.296875 L 10.5 0 L 6.0625 0 L 6.0625 -44.578125 L 11.140625 -45.203125 Z M 18.3125 -3.40625 C 20.96875 -3.40625 23.007812 -4.429688 24.4375 -6.484375 C 25.875 -8.535156 26.59375 -11.6875 26.59375 -15.9375 C 26.59375 -18.707031 26.304688 -21.015625 25.734375 -22.859375 C 25.171875 -24.703125 24.332031 -26.082031 23.21875 -27 C 22.101562 -27.914062 20.734375 -28.375 19.109375 -28.375 C 17.335938 -28.375 15.78125 -27.84375 14.4375 -26.78125 C 13.101562 -25.726562 12.003906 -24.554688 11.140625 -23.265625 L 11.140625 -7.515625 C 11.960938 -6.265625 13 -5.265625 14.25 -4.515625 C 15.507812 -3.773438 16.863281 -3.40625 18.3125 -3.40625 Z M 18.3125 -3.40625 "/></g></g></g><g fill="#5ce1e6" fill-opacity="1"><g transform="translate(154.10579, 127.402747)"><g><path d="M 3.015625 10.953125 L 3.015625 6.515625 L 33.203125 6.515625 L 33.203125 10.953125 Z M 3.015625 10.953125 "/></g></g></g><g fill="#5ce1e6" fill-opacity="1"><g transform="translate(190.318049, 127.402747)"><g><path d="M 25.078125 -45.203125 L 30.15625 -44.578125 L 30.15625 0 L 25.71875 0 L 25.234375 -4.1875 C 24.046875 -2.5 22.679688 -1.265625 21.140625 -0.484375 C 19.597656 0.296875 17.953125 0.6875 16.203125 0.6875 C 13.453125 0.6875 11.179688 -0.00390625 9.390625 -1.390625 C 7.597656 -2.773438 6.269531 -4.707031 5.40625 -7.1875 C 4.539062 -9.675781 4.109375 -12.5625 4.109375 -15.84375 C 4.109375 -19.019531 4.597656 -21.859375 5.578125 -24.359375 C 6.566406 -26.867188 7.988281 -28.84375 9.84375 -30.28125 C 11.707031 -31.71875 13.945312 -32.4375 16.5625 -32.4375 C 18.394531 -32.4375 20.003906 -32.117188 21.390625 -31.484375 C 22.785156 -30.859375 24.015625 -29.929688 25.078125 -28.703125 Z M 17.890625 -28.375 C 15.234375 -28.375 13.191406 -27.335938 11.765625 -25.265625 C 10.335938 -23.191406 9.625 -20.050781 9.625 -15.84375 C 9.625 -13.101562 9.914062 -10.804688 10.5 -8.953125 C 11.082031 -7.109375 11.941406 -5.722656 13.078125 -4.796875 C 14.210938 -3.867188 15.609375 -3.40625 17.265625 -3.40625 C 19.078125 -3.40625 20.617188 -3.914062 21.890625 -4.9375 C 23.171875 -5.96875 24.234375 -7.128906 25.078125 -8.421875 L 25.078125 -24.296875 C 24.210938 -25.578125 23.164062 -26.578125 21.9375 -27.296875 C 20.707031 -28.015625 19.359375 -28.375 17.890625 -28.375 Z M 17.890625 -28.375 "/></g></g></g><g fill="#5ce1e6" fill-opacity="1"><g transform="translate(226.530308, 127.402747)"><g><path d="M 10.046875 -14.09375 C 10.148438 -11.632812 10.625 -9.625 11.46875 -8.0625 C 12.3125 -6.507812 13.425781 -5.363281 14.8125 -4.625 C 16.207031 -3.894531 17.71875 -3.53125 19.34375 -3.53125 C 20.976562 -3.53125 22.453125 -3.769531 23.765625 -4.25 C 25.085938 -4.738281 26.441406 -5.453125 27.828125 -6.390625 L 30.203125 -3.046875 C 28.722656 -1.878906 27.03125 -0.960938 25.125 -0.296875 C 23.21875 0.359375 21.269531 0.6875 19.28125 0.6875 C 16.207031 0.6875 13.582031 -0.00390625 11.40625 -1.390625 C 9.238281 -2.773438 7.582031 -4.707031 6.4375 -7.1875 C 5.300781 -9.675781 4.734375 -12.5625 4.734375 -15.84375 C 4.734375 -19.0625 5.304688 -21.914062 6.453125 -24.40625 C 7.597656 -26.90625 9.207031 -28.867188 11.28125 -30.296875 C 13.351562 -31.722656 15.800781 -32.4375 18.625 -32.4375 C 21.300781 -32.4375 23.601562 -31.804688 25.53125 -30.546875 C 27.457031 -29.296875 28.9375 -27.507812 29.96875 -25.1875 C 31.007812 -22.863281 31.53125 -20.09375 31.53125 -16.875 C 31.53125 -16.332031 31.519531 -15.820312 31.5 -15.34375 C 31.488281 -14.875 31.460938 -14.457031 31.421875 -14.09375 Z M 18.6875 -28.28125 C 16.332031 -28.28125 14.363281 -27.441406 12.78125 -25.765625 C 11.195312 -24.097656 10.296875 -21.515625 10.078125 -18.015625 L 26.65625 -18.015625 C 26.59375 -21.421875 25.84375 -23.984375 24.40625 -25.703125 C 22.976562 -27.421875 21.070312 -28.28125 18.6875 -28.28125 Z M 18.6875 -28.28125 "/></g></g></g><g fill="#5ce1e6" fill-opacity="1"><g transform="translate(262.742567, 127.402747)"><g><path d="M 32.5625 -31.78125 L 21 0 L 15.125 0 L 3.65625 -31.78125 L 9.03125 -31.78125 L 18.234375 -4.625 L 27.3125 -31.78125 Z M 32.5625 -31.78125 "/></g></g></g><g fill="#ffde59" fill-opacity="1"><g transform="translate(298.966053, 127.402747)"><g><path d="M 7.265625 6.21875 L 3.171875 4.40625 L 29 -48.859375 L 33.046875 -46.875 Z M 7.265625 6.21875 "/></g></g></g><g fill="#ffde59" fill-opacity="1"><g transform="translate(335.178311, 127.402747)"><g><path d="M 7.75 -35.859375 L 30.96875 -21.515625 L 30.96875 -16.328125 L 8.0625 -1.984375 L 5.3125 -5.734375 L 26.625 -18.890625 L 5.3125 -32.015625 Z M 7.75 -35.859375 "/></g></g></g></svg>